<?xml version="1.0" standalone="no"?>
<!DOCTYPE svg PUBLIC "-//W3C//DTD SVG 20010904//EN"
 "http://www.w3.org/TR/2001/REC-SVG-20010904/DTD/svg10.dtd">
<svg version="1.0" xmlns="http://www.w3.org/2000/svg"
 width="300.000000pt" height="300.000000pt" viewBox="0 0 300.000000 300.000000"
 preserveAspectRatio="xMidYMid meet">
<metadata>
Created by potrace 1.14, written by Peter Selinger 2001-2017
</metadata>
<g transform="translate(0.000000,300.000000) scale(0.100000,-0.100000)"
fill="#000000" stroke="none">
<path d="M103 2338 c3 -7 31 -88 62 -180 l57 -168 319 0 c350 0 336 3 282 -55
-10 -11 -45 -54 -78 -95 -33 -41 -62 -77 -65 -80 -3 -3 -52 -62 -108 -132
l-103 -127 103 -128 c56 -70 105 -130 108 -133 3 -3 21 -25 40 -50 19 -25 42
-54 52 -65 9 -11 33 -40 53 -65 l38 -45 -321 -3 -320 -2 -52 -153 c-28 -83
-55 -164 -60 -179 l-9 -28 528 0 528 0 31 93 c17 50 52 152 77 226 l45 134
-24 31 c-13 17 -32 41 -42 52 -11 12 -30 36 -44 54 -26 34 -50 64 -72 90 -7 8
-31 37 -53 65 -21 27 -49 61 -61 74 -16 17 -20 29 -14 40 5 9 66 86 136 171
70 85 137 169 151 186 l23 31 -66 194 c-36 107 -70 209 -75 227 l-10 32 -530
0 c-421 0 -530 -3 -526 -12z"/>
<path d="M1293 2338 c2 -7 27 -80 55 -163 28 -82 92 -269 142 -415 50 -146
109 -317 130 -380 73 -215 238 -695 245 -712 7 -16 27 -18 230 -18 l222 0 21
58 c25 70 60 172 340 992 l220 645 -220 3 c-122 1 -223 0 -226 -2 -3 -4 -296
-854 -341 -994 -8 -23 -16 -41 -17 -39 -2 2 -31 84 -64 183 -34 98 -64 186
-67 194 -3 8 -7 20 -9 25 -1 6 -50 149 -108 319 -58 170 -106 311 -106 312 0
2 -102 4 -226 4 -177 0 -225 -3 -221 -12z"/>
</g>
</svg>
