<svg width="48" height="48" viewBox="0 0 80 80" fill="none" xmlns="http://www.w3.org/2000/svg">
<path d="M34.4131 17L49.7747 62H61.6433L46.2816 17H34.4131Z" fill="#2FAEE0"/>
<path d="M35.0092 28.9818L30.92 17L12.7747 39.5L30.92 62L35.0092 50.0182L26.5303 39.5L35.0092 28.9818Z" fill="#2FAEE0"/>
<path d="M65.1314 17L55.7065 44.6152L61.6433 62L77 17H65.1314Z" fill="#4B5F6C"/>
<path d="M30.92 62L23.2687 52.5038H6.24181L3 62H30.92Z" fill="#4B5F6C"/>
<path d="M3 17L6.24181 26.4912H23.2687L30.92 17H3Z" fill="#4B5F6C"/>
<path d="M23.2688 52.5038H20.5393L28.2251 62H30.9348L23.2688 52.5038Z" fill="#3A4A55"/>
<path d="M56.9529 40.9636L55.6572 44.7591L61.6432 62L62.8946 58.3286L56.9529 40.9636Z" fill="#3A4A55"/>
<path d="M30.9299 17H28.23L20.5443 26.4912H23.3033L30.9299 17Z" fill="#3A4A55"/>
</svg>
