<svg width="32" height="32" viewBox="0 0 32 32" fill="none" xmlns="http://www.w3.org/2000/svg">
<g clip-path="url(#clip0)">
<path d="M28.8866 6.89919C28.5876 6.99595 28.2709 7.04871 27.9396 7.04871C26.2214 7.04871 24.8257 5.65013 24.8257 3.93192C24.8257 3.5713 24.8873 3.22824 24.9987 2.90568C22.7557 1.29302 20.0699 0.252144 17.1642 0V3.83223C22.6912 4.46851 27.0746 8.85192 27.7109 14.3789H31.5431C31.3027 11.6227 30.3556 9.06893 28.8866 6.89919Z" fill="#4B5F6C"/>
<path d="M6.54437 2.90573C6.65578 3.22824 6.71736 3.5713 6.71736 3.93197C6.71736 5.65013 5.32171 7.04875 3.6035 7.04875C3.27216 7.04875 2.9555 6.996 2.65646 6.89923C1.18752 9.06898 0.240432 11.6228 0 14.3789H3.83222C4.46846 8.85192 8.85187 4.46851 14.3788 3.83222V0C11.4732 0.252192 8.78736 1.29307 6.54437 2.90573Z" fill="#4B5F6C"/>
<path d="M27.7109 17.1643C27.0746 22.6913 22.6912 27.0747 17.1642 27.711V31.5432C20.1227 31.2852 22.8495 30.215 25.116 28.5525C24.9283 28.1538 24.8257 27.711 24.8257 27.2419C24.8257 25.5266 26.2214 24.128 27.9396 24.128C28.3442 24.128 28.7283 24.2042 29.0831 24.3479C30.4406 22.2427 31.3144 19.7944 31.5431 17.1644L27.7109 17.1643Z" fill="#4B5F6C"/>
<path d="M3.83222 17.1643H0C0.228672 19.7944 1.10242 22.2427 2.46 24.3479C2.81477 24.2042 3.19886 24.128 3.6035 24.128C5.32171 24.128 6.71736 25.5265 6.71736 27.2418C6.71736 27.7109 6.61474 28.1537 6.4271 28.5525C8.69357 30.2149 11.4204 31.2852 14.3788 31.5432V27.7109C8.85187 27.0747 4.46846 22.6913 3.83222 17.1643Z" fill="#4B5F6C"/>
<path d="M27.9396 6.46229C29.3362 6.46229 30.4685 5.33007 30.4685 3.93341C30.4685 2.53675 29.3362 1.40453 27.9396 1.40453C26.5429 1.40453 25.4107 2.53675 25.4107 3.93341C25.4107 5.33007 26.5429 6.46229 27.9396 6.46229Z" fill="#2FAEE0"/>
<path d="M3.60353 6.46229C5.00019 6.46229 6.13241 5.33007 6.13241 3.93341C6.13241 2.53675 5.00019 1.40453 3.60353 1.40453C2.20686 1.40453 1.07465 2.53675 1.07465 3.93341C1.07465 5.33007 2.20686 6.46229 3.60353 6.46229Z" fill="#2FAEE0"/>
<path d="M27.9396 29.7722C29.3362 29.7722 30.4685 28.64 30.4685 27.2433C30.4685 25.8467 29.3362 24.7144 27.9396 24.7144C26.5429 24.7144 25.4107 25.8467 25.4107 27.2433C25.4107 28.64 26.5429 29.7722 27.9396 29.7722Z" fill="#2FAEE0"/>
<path d="M3.60353 29.7722C5.00019 29.7722 6.13241 28.64 6.13241 27.2433C6.13241 25.8467 5.00019 24.7144 3.60353 24.7144C2.20686 24.7144 1.07465 25.8467 1.07465 27.2433C1.07465 28.64 2.20686 29.7722 3.60353 29.7722Z" fill="#2FAEE0"/>
<path d="M16.2087 25.2217C11.195 25.2164 7.18055 21.1352 7.20008 16.1704C7.21961 11.2177 11.267 7.1882 16.2244 7.20003C21.2312 7.21213 25.2503 11.2854 25.2212 16.2637C25.192 21.224 21.1528 25.2222 16.2087 25.2217ZM24.514 16.2166C24.5008 11.6292 20.8052 7.93035 16.2524 7.91192C11.618 7.89294 7.93671 11.6303 7.91196 16.1569C7.88665 20.793 11.6235 24.5103 16.2112 24.5101C20.7996 24.5098 24.4939 20.7996 24.514 16.2166Z" fill="#4B5F6C"/>
<path d="M12 11.2H16.6944C18.8049 11.2 20.0968 12.1911 20.0968 14.335C20.0968 15.5676 19.332 16.5588 18.1579 16.9073L20.3077 20.7385H17.6835L15.8376 17.3084H14.3462V20.7374H12V11.2ZM14.3462 15.5403H16.496C17.2473 15.5267 17.7486 15.1382 17.7486 14.2542C17.7486 13.3702 17.2473 12.9817 16.496 12.9681H14.3462V15.5403Z" fill="#4B5F6C"/>
</g>
<defs>
<clipPath id="clip0">
<rect width="32" height="32" fill="white"/>
</clipPath>
</defs>
</svg>
